<?xml version="1.0" encoding="UTF-8" standalone="no"?>
<svg
   xmlns:dc="http://purl.org/dc/elements/1.1/"
   xmlns:cc="http://creativecommons.org/ns#"
   xmlns:rdf="http://www.w3.org/1999/02/22-rdf-syntax-ns#"
   xmlns:svg="http://www.w3.org/2000/svg"
   xmlns="http://www.w3.org/2000/svg"
   xmlns:sodipodi="http://sodipodi.sourceforge.net/DTD/sodipodi-0.dtd"
   xmlns:inkscape="http://www.inkscape.org/namespaces/inkscape"
   width="12"
   height="16"
   version="1.1"
   id="svg16"
   sodipodi:docname="logo.svg"
   viewBox="0 0 12 16"
   inkscape:version="0.92.4 (5da689c313, 2019-01-14)">
  <metadata
     id="metadata20">
    <rdf:RDF>
      <cc:Work
         rdf:about="">
        <dc:format>image/svg+xml</dc:format>
        <dc:type
           rdf:resource="http://purl.org/dc/dcmitype/StillImage" />
        <dc:title>logo</dc:title>
      </cc:Work>
    </rdf:RDF>
  </metadata>
  <sodipodi:namedview
     pagecolor="#ffffff"
     bordercolor="#666666"
     borderopacity="1"
     objecttolerance="10"
     gridtolerance="10"
     guidetolerance="10"
     inkscape:pageopacity="0"
     inkscape:pageshadow="2"
     inkscape:window-width="942"
     inkscape:window-height="674"
     id="namedview18"
     showgrid="false"
     inkscape:zoom="23.260172"
     inkscape:cx="6.7265144"
     inkscape:cy="8.2268849"
     inkscape:window-x="2767"
     inkscape:window-y="165"
     inkscape:window-maximized="0"
     inkscape:current-layer="svg16" />
  <defs
     id="defs4">
    <style
       id="style2">
            .cls-1{fill:#60aec8;}.cls-2{fill:none;}.cls-3{fill:#324c93;}
        </style>
  </defs>
  <title
     id="title6">logo</title>
  <g
     id="Layer_2"
     data-name="Layer 2"
     transform="matrix(0.06989254,0,0,0.06988978,0.15,-0.04529582)">
    <g
       id="Layer_1-2"
       data-name="Layer 1">
      <rect
         class="cls-1"
         width="167.5"
         height="229.58"
         rx="9"
         ry="9"
         id="rect8"
         x="0"
         y="0"
         style="fill:#60aec8" />
      <path
         class="cls-2"
         d="m 138.55,88.39 q 0,-16.47 -7.89,-25.22 -7.89,-8.75 -24.59,-8.75 -15,0 -23.79,12.17 -8.79,12.17 -8.81,31 v 33.25 q 0,19.09 9.27,31.26 9.27,12.17 25.05,12.17 15.67,0 23.16,-8.41 7.49,-8.41 7.49,-25 H 167.5 V 88.39 Z"
         id="path10"
         inkscape:connector-curvature="0"
         style="fill:none" />
      <path
         class="cls-3"
         d="m 130.94,165.89 q -7.49,8.41 -23.16,8.41 -15.67,0 -25.05,-12.17 Q 73.47,150 73.47,130.87 V 97.62 q 0,-18.85 8.81,-31 8.81,-12.15 23.79,-12.17 16.7,0 24.59,8.75 7.89,8.75 7.89,25.22 H 167.5 V 63.87 A 49.45,49.45 0 0 0 154.34,44.52 Q 136.95,28.68 106.07,28.68 76.79,28.68 58.49,48.13 40.19,67.58 40.18,97.88 v 33.06 q 0,30.43 18.76,49.76 18.76,19.33 48.84,19.3 30,0 46.84,-15.79 a 49.45,49.45 0 0 0 12.88,-19.47 v -23.85 h -29.06 q 0,16.59 -7.5,25 z"
         id="path12"
         inkscape:connector-curvature="0"
         style="fill:#324c93" />
    </g>
  </g>
</svg>
